REM DIRINDEX 1\2\6,1\2\7,1\2\8,1\2\9,1\3\10,1\3\11,1\4\12,1\4\13,1\4\14,1\5\15,1\5\16,1\5\17
REM DIRNAME folder01,folder02,folder03,folder04,folder05,folder06,folder07,folder08,folder09,folder10,folder11,folder12,folder13,folder14,folder15,folder16,folder17
TITLE ""
FILE "1900_3_034 sec06_0548_0564.mp3" MP3
  TRACK 01 AUDIO
    TITLE "0:"
    INDEX 01 00:00:00
  TRACK 02 AUDIO
    TITLE "17:cjc020_7067"
    INDEX 01 00:00:19
  TRACK 03 AUDIO
    TITLE "0:"
    INDEX 01 00:03:14
  TRACK 04 AUDIO
    TITLE "16:cjc020_7068"
    INDEX 01 00:03:23
  TRACK 05 AUDIO
    TITLE "0:"
    INDEX 01 00:04:29
  TRACK 06 AUDIO
    TITLE "17:cjc020_7069"
    INDEX 01 00:05:16
  TRACK 07 AUDIO
    TITLE "0:"
    INDEX 01 00:06:30
  TRACK 08 AUDIO
    TITLE "16:cjc020_7070"
    INDEX 01 00:06:33
  TRACK 09 AUDIO
    TITLE "0:"
    INDEX 01 00:07:47
  TRACK 10 AUDIO
    TITLE "17:cjc020_7071"
    INDEX 01 00:08:36
  TRACK 11 AUDIO
    TITLE "0:"
    INDEX 01 00:09:44
  TRACK 12 AUDIO
    TITLE "16:cjc020_7072"
    INDEX 01 00:09:47
  TRACK 13 AUDIO
    TITLE "0:"
    INDEX 01 00:10:68
  TRACK 14 AUDIO
    TITLE "17:cjc020_7073"
    INDEX 01 00:11:54
  TRACK 15 AUDIO
    TITLE "0:"
    INDEX 01 00:12:61
  TRACK 16 AUDIO
    TITLE "16:cjc020_7074"
    INDEX 01 00:12:65
  TRACK 17 AUDIO
    TITLE "0:"
    INDEX 01 00:14:13
  TRACK 18 AUDIO
    TITLE "17:cjc020_7075"
    INDEX 01 00:14:72
  TRACK 19 AUDIO
    TITLE "0:"
    INDEX 01 00:16:10
  TRACK 20 AUDIO
    TITLE "16:cjc020_7076"
    INDEX 01 00:16:16
  TRACK 21 AUDIO
    TITLE "0:"
    INDEX 01 00:17:16
  TRACK 22 AUDIO
    TITLE "17:cjc020_7077"
    INDEX 01 00:18:03
  TRACK 23 AUDIO
    TITLE "0:"
    INDEX 01 00:18:64
  TRACK 24 AUDIO
    TITLE "16:cjc020_7078"
    INDEX 01 00:18:68
  TRACK 25 AUDIO
    TITLE "0:"
    INDEX 01 00:19:67
  TRACK 26 AUDIO
    TITLE "17:cjc020_7079"
    INDEX 01 00:20:53
  TRACK 27 AUDIO
    TITLE "0:"
    INDEX 01 00:21:70
  TRACK 28 AUDIO
    TITLE "16:cjc020_7080"
    INDEX 01 00:21:74
  TRACK 29 AUDIO
    TITLE "0:"
    INDEX 01 00:23:10
  TRACK 30 AUDIO
    TITLE "17:cjc020_7081"
    INDEX 01 00:23:69
  TRACK 31 AUDIO
    TITLE "0:"
    INDEX 01 00:25:07
  TRACK 32 AUDIO
    TITLE "16:cjc020_7082"
    INDEX 01 00:25:15
  TRACK 33 AUDIO
    TITLE "0:"
    INDEX 01 00:26:32
  TRACK 34 AUDIO
    TITLE "17:cjc020_7083"
    INDEX 01 00:27:18
  TRACK 35 AUDIO
    TITLE "0:"
    INDEX 01 00:29:25
  TRACK 36 AUDIO
    TITLE "16:cjc020_7084"
    INDEX 01 00:29:33
  TRACK 37 AUDIO
    TITLE "0:"
    INDEX 01 00:30:46
  TRACK 38 AUDIO
    TITLE "17:cjc020_7085"
    INDEX 01 00:31:31
  TRACK 39 AUDIO
    TITLE "0:"
    INDEX 01 00:33:34
  TRACK 40 AUDIO
    TITLE "16:cjc020_7086"
    INDEX 01 00:33:40
  TRACK 41 AUDIO
    TITLE "0:"
    INDEX 01 00:34:51
  TRACK 42 AUDIO
    TITLE "17:cjc020_7087"
    INDEX 01 00:35:31
  TRACK 43 AUDIO
    TITLE "0:"
    INDEX 01 00:36:52
  TRACK 44 AUDIO
    TITLE "16:cjc020_7088"
    INDEX 01 00:36:60
  TRACK 45 AUDIO
    TITLE "0:"
    INDEX 01 00:37:73
  TRACK 46 AUDIO
    TITLE "17:cjc020_7089"
    INDEX 01 00:38:55
  TRACK 47 AUDIO
    TITLE "0:"
    INDEX 01 00:40:23
  TRACK 48 AUDIO
    TITLE "16:cjc020_7090"
    INDEX 01 00:40:28
  TRACK 49 AUDIO
    TITLE "0:"
    INDEX 01 00:41:38
  TRACK 50 AUDIO
    TITLE "17:cjc020_7091"
    INDEX 01 00:42:21
  TRACK 51 AUDIO
    TITLE "0:"
    INDEX 01 00:43:31
  TRACK 52 AUDIO
    TITLE "16:cjc020_7092"
    INDEX 01 00:43:33
  TRACK 53 AUDIO
    TITLE "0:"
    INDEX 01 00:44:32
  TRACK 54 AUDIO
    TITLE "17:cjc020_7093"
    INDEX 01 00:45:16
  TRACK 55 AUDIO
    TITLE "0:"
    INDEX 01 00:47:32
  TRACK 56 AUDIO
    TITLE "16:cjc020_7094"
    INDEX 01 00:47:36
  TRACK 57 AUDIO
    TITLE "0:"
    INDEX 01 00:48:61
  TRACK 58 AUDIO
    TITLE "17:cjc020_7095"
    INDEX 01 00:49:49
  TRACK 59 AUDIO
    TITLE "0:"
    INDEX 01 00:52:04
  TRACK 60 AUDIO
    TITLE "16:cjc020_7096"
    INDEX 01 00:52:08
  TRACK 61 AUDIO
    TITLE "0:"
    INDEX 01 00:53:19
  TRACK 62 AUDIO
    TITLE "17:cjc020_7097"
    INDEX 01 00:53:74
  TRACK 63 AUDIO
    TITLE "0:"
    INDEX 01 00:55:08
  TRACK 64 AUDIO
    TITLE "16:cjc020_7098"
    INDEX 01 00:55:16
  TRACK 65 AUDIO
    TITLE "0:"
    INDEX 01 00:56:10
  TRACK 66 AUDIO
    TITLE "17:cjc020_7099"
    INDEX 01 00:56:65
  TRACK 67 AUDIO
    TITLE "0:"
    INDEX 01 00:57:70
  TRACK 68 AUDIO
    TITLE "16:cjc020_7100"
    INDEX 01 00:58:03
  TRACK 69 AUDIO
    TITLE "0:"
    INDEX 01 00:59:39
